<svg width="55" height="19" xmlns="http://www.w3.org/2000/svg" xmlns:xlink="http://www.w3.org/1999/xlink" xml:space="preserve" overflow="hidden"><defs><clipPath id="clip0"><rect x="549" y="494" width="55" height="19"/></clipPath><clipPath id="clip1"><rect x="549" y="494" width="55" height="19"/></clipPath><clipPath id="clip2"><rect x="550" y="495" width="54" height="18"/></clipPath><clipPath id="clip3"><rect x="550" y="495" width="54" height="18"/></clipPath></defs><g clip-path="url(#clip0)" transform="translate(-549 -494)"><g clip-path="url(#clip1)"><g clip-path="url(#clip2)"><g clip-path="url(#clip3)"><path d="M42.9476 26.4193C42.9476 24.7662 44.2878 23.426 45.941 23.426L93.8343 23.426C95.4874 23.426 96.8273 24.7662 96.8273 26.4193L96.8273 38.3924C96.8273 40.0457 95.4874 41.3858 93.8343 41.3858L45.941 41.3858C44.2878 41.3858 42.9476 40.0457 42.9476 38.3924Z" fill="#C00000" fill-rule="evenodd" fill-opacity="1" transform="matrix(1.0009 0 0 1 507.04 471.539)"/><text fill="#FFFFFF" fill-opacity="1" font-family="Aptos,Aptos_MSFontService,sans-serif" font-style="normal" font-variant="normal" font-weight="400" font-stretch="normal" font-size="183" text-anchor="start" direction="ltr" writing-mode="lr-tb" unicode-bidi="normal" text-decoration="none" transform="matrix(0.0781572 0 0 0.0780866 554.532 509)">Critical</text></g></g></g></g></svg>