<svg width="56" height="18" xmlns="http://www.w3.org/2000/svg" xmlns:xlink="http://www.w3.org/1999/xlink" xml:space="preserve" overflow="hidden"><defs><clipPath id="clip0"><rect x="548" y="536" width="56" height="18"/></clipPath><clipPath id="clip1"><rect x="548" y="536" width="56" height="18"/></clipPath><clipPath id="clip2"><rect x="549" y="536" width="55" height="18"/></clipPath><clipPath id="clip3"><rect x="549" y="536" width="55" height="18"/></clipPath></defs><g clip-path="url(#clip0)" transform="translate(-548 -536)"><g clip-path="url(#clip1)"><g clip-path="url(#clip2)"><g clip-path="url(#clip3)"><g><path d="M42.6755 81.1866C42.6755 79.544 44.0072 78.2125 45.6499 78.2125L93.2397 78.2125C94.8824 78.2125 96.2138 79.544 96.2138 81.1866L96.2138 93.0846C96.2138 94.7272 94.8824 96.0587 93.2397 96.0587L45.6499 96.0587C44.0072 96.0587 42.6755 94.7272 42.6755 93.0846Z" fill="#CB9A39" fill-rule="evenodd" fill-opacity="1" transform="matrix(1.01698 0 0 1 505.994 457.674)"/><text fill="#FFFFFF" fill-opacity="1" font-family="Aptos,Aptos_MSFontService,sans-serif" font-style="normal" font-variant="normal" font-weight="400" font-stretch="normal" font-size="183" text-anchor="start" direction="ltr" writing-mode="lr-tb" unicode-bidi="normal" text-decoration="none" transform="matrix(0.0789096 0 0 0.0775918 558.919 549)">Major</text></g></g></g></g></g></svg>